# Blender 4.0.2
# www.blender.org
mtllib pregnant_end.mtl
o pregnant_end
v 1.250000 0.500000 -0.000000
v -1.250000 0.500000 -0.000000
v -1.250000 0.500000 -0.750000
v -0.500000 0.500000 -1.500000
v 0.500000 0.500000 -1.500000
v 1.250000 0.500000 -0.750000
v 1.250000 -0.500000 0.000000
v -1.250000 -0.500000 0.000000
v -1.250000 -0.500000 -0.750000
v -0.500000 -0.500000 -1.500000
v 0.500000 -0.500000 -1.500000
v 1.250000 -0.500000 -0.750000
v 0.750000 -1.250000 -0.500000
v 0.250000 -1.250000 -1.000000
v -0.250000 -1.250000 -1.000000
v -0.750000 -1.250000 -0.500000
v -0.750000 -1.250000 0.000000
v 0.750000 -1.250000 0.000000
v 0.750000 1.250000 -0.000000
v -0.750000 1.250000 -0.000000
v -0.750000 1.250000 -0.500000
v -0.250000 1.250000 -0.750000
v 0.250000 1.250000 -0.750000
v 0.750000 1.250000 -0.500000
v -0.750000 -1.250000 1.000000
v -1.250000 -0.500000 1.000000
v 1.250000 -0.500000 1.000000
v 0.750000 -1.250000 1.000000
v 1.250000 0.500000 1.000000
v -1.250000 0.500000 1.000000
v 0.750000 1.250000 1.000000
v -0.750000 1.250000 1.000000
v -0.750000 2.250000 1.000000
v -0.750000 2.250000 -0.000000
v 0.750000 2.250000 -0.000000
v 0.750000 2.250000 1.000000
v -0.750000 1.750000 -0.750000
v 0.750000 1.750000 -0.750000
v -0.250000 2.500000 0.750000
v -0.250000 2.500000 0.250000
v 0.250000 2.500000 0.250000
v 0.250000 2.500000 0.750000
v -0.500000 3.500000 1.000000
v -0.500000 3.500000 -0.000000
v 0.500000 3.500000 -0.000000
v 0.500000 3.500000 1.000000
v -0.250000 3.750000 0.750000
v -0.250000 3.750000 0.250000
v 0.250000 3.750000 0.250000
v 0.250000 3.750000 0.750000
v -0.750000 2.250000 0.750000
v -0.750000 1.750000 0.750000
v -0.750000 1.750000 0.250000
v -0.750000 2.250000 0.250000
v -1.750000 1.000000 0.750000
v -1.250000 1.000000 0.750000
v -1.250000 1.000000 0.250000
v -1.750000 1.000000 0.250000
v -2.250000 -0.500000 0.750000
v -1.750000 -0.500000 0.750000
v -1.750000 -0.500000 0.250000
v -2.250000 -0.500000 0.250000
v 0.750000 2.250000 0.250000
v 0.750000 1.750000 0.250000
v 0.750000 1.750000 0.750000
v 0.750000 2.250000 0.750000
v 1.750000 1.000000 0.250000
v 1.250000 1.000000 0.250000
v 1.250000 1.000000 0.750000
v 1.750000 1.000000 0.750000
v 2.250000 -0.500000 0.250000
v 1.750000 -0.500000 0.250000
v 1.750000 -0.500000 0.750000
v 2.250000 -0.500000 0.750000
v 0.000000 -1.250000 1.000000
v 0.000000 -1.250000 0.000000
v 0.500000 -3.750000 1.000000
v 1.250000 -3.750000 1.000000
v 1.250000 -3.750000 0.000000
v 0.500000 -3.750000 0.000000
v -0.500000 -3.750000 0.000000
v -1.250000 -3.750000 0.000000
v -1.250000 -3.750000 1.000000
v -0.500000 -3.750000 1.000000
vn -1.0000 -0.0000 -0.0000
vn -0.7071 -0.0000 -0.7071
vn -0.0000 -0.0000 -1.0000
vn 0.7071 -0.0000 -0.7071
vn 1.0000 -0.0000 -0.0000
vn 0.5774 -0.5774 -0.5774
vn -0.0000 -0.5547 -0.8321
vn -0.5774 -0.5774 -0.5774
vn -0.8321 -0.5547 -0.0000
vn 0.8321 -0.5547 -0.0000
vn -0.0000 -1.0000 -0.0000
vn -0.8321 0.5547 -0.0000
vn -0.4800 0.6400 -0.6000
vn -0.0000 0.7071 -0.7071
vn 0.4800 0.6400 -0.6000
vn 0.8321 0.5547 -0.0000
vn -0.0000 -0.0000 1.0000
vn -0.0000 1.0000 -0.0000
vn -0.0000 -0.8321 -0.5547
vn -0.0000 0.8321 -0.5547
vn -0.4472 0.8944 -0.0000
vn 0.4472 0.8944 -0.0000
vn -0.0000 0.7071 0.7071
vn -0.9701 -0.2425 -0.0000
vn -0.0000 -0.2425 -0.9701
vn 0.9701 -0.2425 -0.0000
vn -0.0000 -0.2425 0.9701
vn -0.7071 0.7071 -0.0000
vn 0.7071 0.7071 -0.0000
vn -0.7809 0.6247 -0.0000
vn 0.9487 -0.3162 -0.0000
vn -0.9487 0.3162 -0.0000
vn 0.7809 0.6247 -0.0000
vn -0.9487 -0.3162 -0.0000
vn 0.9487 0.3162 -0.0000
vn 0.9806 -0.1961 -0.0000
vn 0.9806 0.1961 -0.0000
vn -0.9806 -0.1961 -0.0000
vn -0.9806 0.1961 -0.0000
vt 0.500000 1.000000
vt 0.500000 0.937500
vt 0.562500 0.937500
vt 0.562500 1.000000
vt 0.000000 0.937500
vt 0.062500 0.937500
vt 0.062500 1.000000
vt 0.000000 1.000000
vt 0.062500 0.906300
vt 0.062500 0.875000
vt 0.156300 0.843800
vt 0.187500 0.906300
vt 0.156300 0.937500
vt 0.093800 0.937500
vt 0.250000 0.937500
vt 0.125000 0.937500
vt 0.125000 0.812500
vt 0.250000 0.812500
vt 0.000000 0.812500
vt 0.875000 0.937500
vt 0.937500 0.937500
vt 0.937500 1.000000
vt 0.875000 1.000000
vt 0.187500 0.875000
vt 0.093800 0.843800
vt 0.625000 0.937500
vt 0.625000 1.000000
vt 0.265600 0.781300
vt 0.359400 0.781300
vt 0.375000 0.937500
vt 0.562500 0.921900
vt 0.500000 0.921900
vt 1.000000 0.937500
vt 1.000000 1.000000
s 0
usemtl pregnant_end_mtl
f 3/1/1 9/2/1 8/3/1 2/4/1
f 4/1/2 10/2/2 9/3/2 3/4/2
f 5/1/3 11/2/3 10/3/3 4/4/3
f 6/1/4 12/2/4 11/3/4 5/4/4
f 1/1/5 7/2/5 12/3/5 6/4/5
f 14/2/6 11/3/6 12/4/6 13/1/6
f 15/2/7 10/3/7 11/4/7 14/1/7
f 16/2/8 9/3/8 10/4/8 15/1/8
f 17/2/9 8/3/9 9/4/9 16/1/9
f 13/2/10 12/3/10 7/4/10 18/1/10
f 84/5/11 83/6/11 82/7/11 81/8/11
f 21/2/12 3/3/12 2/4/12 20/1/12
f 22/2/13 4/3/13 3/4/13 21/1/13
f 23/2/14 5/3/14 4/4/14 22/1/14
f 24/2/15 6/3/15 5/4/15 23/1/15
f 19/2/16 1/3/16 6/4/16 24/1/16
f 13/9/11 18/10/11 17/11/11 16/12/11 15/13/11 14/14/11
f 26/15/9 8/16/9 17/17/9 25/18/9
f 28/19/10 18/17/10 7/16/10 27/5/10
f 28/20/17 27/21/17 26/22/17 25/23/17
f 27/2/5 7/3/5 1/4/5 29/1/5
f 30/2/1 2/3/1 8/4/1 26/1/1
f 30/1/17 26/2/17 27/3/17 29/4/17
f 29/2/16 1/3/16 19/4/16 31/1/16
f 32/2/12 20/3/12 2/4/12 30/1/12
f 32/2/17 30/3/17 29/4/17 31/1/17
f 33/2/17 32/3/17 31/4/17 36/1/17
f 21/11/18 20/24/18 19/13/18 24/9/18 23/10/18 22/25/18
f 38/2/19 19/3/19 20/4/19 37/1/19
f 37/2/1 20/3/1 34/4/1
f 37/2/20 34/3/20 35/4/20 38/1/20
f 40/2/21 34/3/21 33/4/21 39/1/21
f 41/2/14 35/3/14 34/4/14 40/1/14
f 42/2/22 36/3/22 35/4/22 41/1/22
f 39/2/23 33/3/23 36/4/23 42/1/23
f 44/3/24 40/26/24 39/27/24 43/4/24
f 45/15/25 41/28/25 40/29/25 44/30/25
f 46/3/26 42/26/26 41/27/26 45/4/26
f 43/3/27 39/26/27 42/27/27 46/4/27
f 48/3/28 44/26/28 43/27/28 47/4/28
f 49/3/14 45/26/14 44/27/14 48/4/14
f 50/3/29 46/26/29 45/27/29 49/4/29
f 47/3/23 43/26/23 46/27/23 50/4/23
f 50/3/18 49/26/18 48/27/18 47/4/18
f 52/2/1 32/3/1 33/4/1 51/1/1
f 53/2/1 20/3/1 32/4/1 52/1/1
f 54/2/1 34/3/1 20/4/1 53/1/1
f 56/2/17 52/3/17 51/4/17 55/1/17
f 57/2/10 53/3/10 52/4/10 56/1/10
f 58/2/3 54/3/3 53/4/3 57/1/3
f 55/2/30 51/3/30 54/4/30 58/1/30
f 60/31/17 56/4/17 55/1/17 59/32/17
f 61/31/31 57/4/31 56/1/31 60/32/31
f 62/31/3 58/4/3 57/1/3 61/32/3
f 59/31/32 55/4/32 58/1/32 62/32/32
f 62/21/11 61/33/11 60/34/11 59/22/11
f 64/2/5 19/3/5 35/4/5 63/1/5
f 65/2/5 31/3/5 19/4/5 64/1/5
f 66/2/5 36/3/5 31/4/5 65/1/5
f 68/2/3 64/3/3 63/4/3 67/1/3
f 69/2/9 65/3/9 64/4/9 68/1/9
f 70/2/17 66/3/17 65/4/17 69/1/17
f 67/2/33 63/3/33 66/4/33 70/1/33
f 72/31/3 68/4/3 67/1/3 71/32/3
f 73/31/34 69/4/34 68/1/34 72/32/34
f 74/31/17 70/4/17 69/1/17 73/32/17
f 71/31/35 67/4/35 70/1/35 74/32/35
f 74/21/11 73/33/11 72/34/11 71/22/11
f 38/2/5 35/3/5 19/4/5
f 81/20/36 76/21/36 75/22/36 84/23/36
f 78/20/17 28/21/17 75/22/17 77/23/17
f 79/20/37 18/21/37 28/22/37 78/23/37
f 80/20/3 76/21/3 18/22/3 79/23/3
f 77/20/38 75/21/38 76/22/38 80/23/38
f 80/5/11 79/6/11 78/7/11 77/8/11
f 82/20/3 17/21/3 76/22/3 81/23/3
f 83/20/39 25/21/39 17/22/39 82/23/39
f 84/20/17 75/21/17 25/22/17 83/23/17
