# Blender 4.0.2
# www.blender.org
mtllib pregnant_end.mtl
o pregnant_end
v 1.250000 0.500000 -0.000000
v -1.250000 0.500000 -0.000000
v -1.250000 0.500000 -0.750000
v -0.500000 0.500000 -1.500000
v 0.500000 0.500000 -1.500000
v 1.250000 0.500000 -0.750000
v 1.250000 -0.500000 0.000000
v -1.250000 -0.500000 0.000000
v -1.250000 -0.500000 -0.750000
v -0.500000 -0.500000 -1.500000
v 0.500000 -0.500000 -1.500000
v 1.250000 -0.500000 -0.750000
v 0.750000 -1.250000 -0.500000
v 0.250000 -1.250000 -1.000000
v -0.250000 -1.250000 -1.000000
v -0.750000 -1.250000 -0.500000
v -0.750000 -1.250000 0.000000
v 0.750000 -1.250000 0.000000
v 0.750000 1.250000 -0.000000
v -0.750000 1.250000 -0.000000
v -0.750000 1.250000 -0.500000
v -0.250000 1.250000 -0.750000
v 0.250000 1.250000 -0.750000
v 0.750000 1.250000 -0.500000
v -0.750000 -1.250000 1.000000
v -1.250000 -0.500000 1.000000
v 1.250000 -0.500000 1.000000
v 0.750000 -1.250000 1.000000
v 1.250000 0.500000 1.000000
v -1.250000 0.500000 1.000000
v 0.750000 1.250000 1.000000
v -0.750000 1.250000 1.000000
v -0.750000 2.250000 1.000000
v -0.750000 2.250000 -0.000000
v 0.750000 2.250000 -0.000000
v 0.750000 2.250000 1.000000
v -0.750000 1.750000 -0.750000
v 0.750000 1.750000 -0.750000
v -0.250000 2.500000 0.750000
v -0.250000 2.500000 0.250000
v 0.250000 2.500000 0.250000
v 0.250000 2.500000 0.750000
v -0.500000 3.500000 1.000000
v -0.500000 3.500000 -0.000000
v 0.500000 3.500000 -0.000000
v 0.500000 3.500000 1.000000
v -0.250000 3.750000 0.750000
v -0.250000 3.750000 0.250000
v 0.250000 3.750000 0.250000
v 0.250000 3.750000 0.750000
v -0.750000 2.250000 0.750000
v -0.750000 1.750000 0.750000
v -0.750000 1.750000 0.250000
v -0.750000 2.250000 0.250000
v -1.750000 1.000000 0.750000
v -1.250000 1.000000 0.750000
v -1.250000 1.000000 0.250000
v -1.750000 1.000000 0.250000
v -2.250000 -0.500000 0.750000
v -1.750000 -0.500000 0.750000
v -1.750000 -0.500000 0.250000
v -2.250000 -0.500000 0.250000
v 0.750000 2.250000 0.250000
v 0.750000 1.750000 0.250000
v 0.750000 1.750000 0.750000
v 0.750000 2.250000 0.750000
v 1.750000 1.000000 0.250000
v 1.250000 1.000000 0.250000
v 1.250000 1.000000 0.750000
v 1.750000 1.000000 0.750000
v 2.250000 -0.500000 0.250000
v 1.750000 -0.500000 0.250000
v 1.750000 -0.500000 0.750000
v 2.250000 -0.500000 0.750000
v 0.000000 -1.250000 1.000000
v 0.000000 -1.250000 0.000000
v 0.500000 -3.750000 1.000000
v 1.250000 -3.750000 1.000000
v 1.250000 -3.750000 0.000000
v 0.500000 -3.750000 0.000000
v -0.500000 -3.750000 0.000000
v -1.250000 -3.750000 0.000000
v -1.250000 -3.750000 1.000000
v -0.500000 -3.750000 1.000000
vn -1.0000 -0.0000 -0.0000
vn -0.7071 -0.0000 -0.7071
vn -0.0000 -0.0000 -1.0000
vn 0.7071 -0.0000 -0.7071
vn 1.0000 -0.0000 -0.0000
vn 0.5774 -0.5774 -0.5774
vn -0.0000 -0.5547 -0.8321
vn -0.5774 -0.5774 -0.5774
vn -0.8321 -0.5547 -0.0000
vn 0.8321 -0.5547 -0.0000
vn -0.0000 -1.0000 -0.0000
vn -0.8321 0.5547 -0.0000
vn -0.4800 0.6400 -0.6000
vn -0.0000 0.7071 -0.7071
vn 0.4800 0.6400 -0.6000
vn 0.8321 0.5547 -0.0000
vn -0.0000 -0.0000 1.0000
vn -0.0000 1.0000 -0.0000
vn -0.0000 -0.8321 -0.5547
vn -0.0000 0.8321 -0.5547
vn -0.4472 0.8944 -0.0000
vn 0.4472 0.8944 -0.0000
vn -0.0000 0.7071 0.7071
vn -0.9701 -0.2425 -0.0000
vn -0.0000 -0.2425 -0.9701
vn 0.9701 -0.2425 -0.0000
vn -0.0000 -0.2425 0.9701
vn -0.7071 0.7071 -0.0000
vn 0.7071 0.7071 -0.0000
vn -0.7809 0.6247 -0.0000
vn 0.9487 -0.3162 -0.0000
vn -0.9487 0.3162 -0.0000
vn 0.7809 0.6247 -0.0000
vn -0.9487 -0.3162 -0.0000
vn 0.9487 0.3162 -0.0000
vn 0.9806 -0.1961 -0.0000
vn 0.9806 0.1961 -0.0000
vn -0.9806 -0.1961 -0.0000
vn -0.9806 0.1961 -0.0000
vt 0.515600 0.921900
vt 0.515600 0.859400
vt 0.578100 0.859400
vt 0.578100 0.921900
vt 0.015600 0.859400
vt 0.078100 0.859400
vt 0.078100 0.921900
vt 0.015600 0.921900
vt 0.500000 0.937500
vt 0.562500 0.937500
vt 0.562500 1.000000
vt 0.500000 1.000000
vt 0.718800 0.890600
vt 0.718800 0.859400
vt 0.812500 0.828100
vt 0.843800 0.890600
vt 0.812500 0.921900
vt 0.750000 0.921900
vt 0.921900 0.921900
vt 0.796900 0.921900
vt 0.796900 0.796900
vt 0.921900 0.796900
vt 0.640600 0.796900
vt 0.765600 0.796900
vt 0.765600 0.921900
vt 0.640600 0.921900
vt 0.640600 0.703100
vt 0.703100 0.703100
vt 0.703100 0.765600
vt 0.640600 0.765600
vt 0.843800 0.859400
vt 0.750000 0.828100
vt 0.140600 0.859400
vt 0.203100 0.859400
vt 0.203100 0.921900
vt 0.140600 0.921900
vt 0.250000 0.812500
vt 0.265600 0.656300
vt 0.359400 0.656300
vt 0.375000 0.812500
vt 0.578100 0.796900
vt 0.578100 0.875000
vt 0.515600 0.875000
vt 0.515600 0.796900
vt 0.531300 0.718800
vt 0.593800 0.718800
vt 0.593800 0.781300
vt 0.531300 0.781300
s 0
usemtl pregnant_end_mtl.001
f 3/1/1 9/2/1 8/3/1 2/4/1
f 4/1/2 10/2/2 9/3/2 3/4/2
f 5/1/3 11/2/3 10/3/3 4/4/3
f 6/1/4 12/2/4 11/3/4 5/4/4
f 1/1/5 7/2/5 12/3/5 6/4/5
f 14/2/6 11/3/6 12/4/6 13/1/6
f 15/2/7 10/3/7 11/4/7 14/1/7
f 16/2/8 9/3/8 10/4/8 15/1/8
f 17/2/9 8/3/9 9/4/9 16/1/9
f 13/2/10 12/3/10 7/4/10 18/1/10
f 84/5/11 83/6/11 82/7/11 81/8/11
f 21/9/12 3/10/12 2/11/12 20/12/12
f 22/2/13 4/3/13 3/4/13 21/1/13
f 23/2/14 5/3/14 4/4/14 22/1/14
f 24/2/15 6/3/15 5/4/15 23/1/15
f 19/9/16 1/10/16 6/11/16 24/12/16
f 13/13/11 18/14/11 17/15/11 16/16/11 15/17/11 14/18/11
f 26/19/9 8/20/9 17/21/9 25/22/9
f 28/23/10 18/24/10 7/25/10 27/26/10
f 28/27/17 27/28/17 26/29/17 25/30/17
f 27/2/5 7/3/5 1/4/5 29/1/5
f 30/2/1 2/3/1 8/4/1 26/1/1
f 30/1/17 26/2/17 27/3/17 29/4/17
f 29/2/16 1/3/16 19/4/16 31/1/16
f 32/2/12 20/3/12 2/4/12 30/1/12
f 32/2/17 30/3/17 29/4/17 31/1/17
f 33/2/17 32/3/17 31/4/17 36/1/17
f 21/15/18 20/31/18 19/17/18 24/13/18 23/14/18 22/32/18
f 38/2/19 19/3/19 20/4/19 37/1/19
f 37/2/1 20/3/1 34/4/1
f 37/2/20 34/3/20 35/4/20 38/1/20
f 40/2/21 34/3/21 33/4/21 39/1/21
f 41/2/14 35/3/14 34/4/14 40/1/14
f 42/2/22 36/3/22 35/4/22 41/1/22
f 39/2/23 33/3/23 36/4/23 42/1/23
f 44/33/24 40/34/24 39/35/24 43/36/24
f 45/37/25 41/38/25 40/39/25 44/40/25
f 46/33/26 42/34/26 41/35/26 45/36/26
f 43/33/27 39/34/27 42/35/27 46/36/27
f 48/33/28 44/34/28 43/35/28 47/36/28
f 49/33/14 45/34/14 44/35/14 48/36/14
f 50/33/29 46/34/29 45/35/29 49/36/29
f 47/33/23 43/34/23 46/35/23 50/36/23
f 50/33/18 49/34/18 48/35/18 47/36/18
f 52/2/1 32/3/1 33/4/1 51/1/1
f 53/2/1 20/3/1 32/4/1 52/1/1
f 54/2/1 34/3/1 20/4/1 53/1/1
f 56/9/17 52/10/17 51/11/17 55/12/17
f 57/9/10 53/10/10 52/11/10 56/12/10
f 58/9/3 54/10/3 53/11/3 57/12/3
f 55/9/30 51/10/30 54/11/30 58/12/30
f 60/41/17 56/42/17 55/43/17 59/44/17
f 61/41/31 57/42/31 56/43/31 60/44/31
f 62/41/3 58/42/3 57/43/3 61/44/3
f 59/41/32 55/42/32 58/43/32 62/44/32
f 62/45/11 61/46/11 60/47/11 59/48/11
f 64/2/5 19/3/5 35/4/5 63/1/5
f 65/2/5 31/3/5 19/4/5 64/1/5
f 66/2/5 36/3/5 31/4/5 65/1/5
f 68/9/3 64/10/3 63/11/3 67/12/3
f 69/9/9 65/10/9 64/11/9 68/12/9
f 70/9/17 66/10/17 65/11/17 69/12/17
f 67/9/33 63/10/33 66/11/33 70/12/33
f 72/41/3 68/42/3 67/43/3 71/44/3
f 73/41/34 69/42/34 68/43/34 72/44/34
f 74/41/17 70/42/17 69/43/17 73/44/17
f 71/41/35 67/42/35 70/43/35 74/44/35
f 74/45/11 73/46/11 72/47/11 71/48/11
f 38/2/5 35/3/5 19/4/5
f 81/27/36 76/28/36 75/29/36 84/30/36
f 78/27/17 28/28/17 75/29/17 77/30/17
f 79/27/37 18/28/37 28/29/37 78/30/37
f 80/27/3 76/28/3 18/29/3 79/30/3
f 77/27/38 75/28/38 76/29/38 80/30/38
f 80/5/11 79/6/11 78/7/11 77/8/11
f 82/27/3 17/28/3 76/29/3 81/30/3
f 83/27/39 25/28/39 17/29/39 82/30/39
f 84/27/17 75/28/17 25/29/17 83/30/17
